<mxfile host="65bd71144e">
    <diagram id="lVGYzZIAy79_TJMXVGw1" name="第 2 页">
        <mxGraphModel dx="1463" dy="550" grid="0" gridSize="10" guides="1" tooltips="1" connect="1" arrows="1" fold="1" page="0" pageScale="1" pageWidth="827" pageHeight="1169" math="0" shadow="0">
            <root>
                <mxCell id="0"/>
                <mxCell id="1" parent="0"/>
                <mxCell id="kYEHjdni47PENweSAJBy-1" value="&lt;font face=&quot;Lucida Console&quot;&gt;Job&lt;/font&gt;" style="ellipse;whiteSpace=wrap;html=1;fillColor=#e1d5e7;strokeColor=#9673a6;" vertex="1" parent="1">
                    <mxGeometry x="344" y="20" width="70" height="40" as="geometry"/>
                </mxCell>
                <mxCell id="kYEHjdni47PENweSAJBy-2" value="" style="rounded=1;whiteSpace=wrap;html=1;dashed=1;" vertex="1" parent="1">
                    <mxGeometry x="40" y="130" width="130" height="170" as="geometry"/>
                </mxCell>
                <mxCell id="kYEHjdni47PENweSAJBy-3" value="&lt;font face=&quot;Lucida Console&quot;&gt;ShuffleMapStage&lt;/font&gt;" style="text;strokeColor=none;fillColor=none;html=1;align=center;verticalAlign=middle;whiteSpace=wrap;rounded=0;" vertex="1" parent="1">
                    <mxGeometry x="45" y="134" width="120" height="30" as="geometry"/>
                </mxCell>
                <mxCell id="kYEHjdni47PENweSAJBy-4" value="&lt;font face=&quot;Lucida Console&quot;&gt;ShuffleMapTask&lt;/font&gt;" style="rounded=0;whiteSpace=wrap;html=1;fillColor=#dae8fc;strokeColor=#6c8ebf;" vertex="1" parent="1">
                    <mxGeometry x="50" y="170" width="110" height="30" as="geometry"/>
                </mxCell>
                <mxCell id="kYEHjdni47PENweSAJBy-5" value="&lt;font face=&quot;Lucida Console&quot;&gt;ShuffleMapTask&lt;/font&gt;" style="rounded=0;whiteSpace=wrap;html=1;fillColor=#dae8fc;strokeColor=#6c8ebf;" vertex="1" parent="1">
                    <mxGeometry x="50" y="210" width="110" height="30" as="geometry"/>
                </mxCell>
                <mxCell id="kYEHjdni47PENweSAJBy-6" value="&lt;font face=&quot;Lucida Console&quot;&gt;ShuffleMapTask&lt;/font&gt;" style="rounded=0;whiteSpace=wrap;html=1;fillColor=#dae8fc;strokeColor=#6c8ebf;" vertex="1" parent="1">
                    <mxGeometry x="50" y="250" width="110" height="30" as="geometry"/>
                </mxCell>
                <mxCell id="kYEHjdni47PENweSAJBy-7" value="" style="rounded=1;whiteSpace=wrap;html=1;dashed=1;" vertex="1" parent="1">
                    <mxGeometry x="194" y="130" width="130" height="170" as="geometry"/>
                </mxCell>
                <mxCell id="kYEHjdni47PENweSAJBy-8" value="&lt;font face=&quot;Lucida Console&quot;&gt;ShuffleMapStage&lt;/font&gt;" style="text;strokeColor=none;fillColor=none;html=1;align=center;verticalAlign=middle;whiteSpace=wrap;rounded=0;" vertex="1" parent="1">
                    <mxGeometry x="199" y="134" width="120" height="30" as="geometry"/>
                </mxCell>
                <mxCell id="kYEHjdni47PENweSAJBy-9" value="&lt;font face=&quot;Lucida Console&quot;&gt;ShuffleMapTask&lt;/font&gt;" style="rounded=0;whiteSpace=wrap;html=1;fillColor=#dae8fc;strokeColor=#6c8ebf;" vertex="1" parent="1">
                    <mxGeometry x="204" y="170" width="110" height="30" as="geometry"/>
                </mxCell>
                <mxCell id="kYEHjdni47PENweSAJBy-10" value="&lt;font face=&quot;Lucida Console&quot;&gt;ShuffleMapTask&lt;/font&gt;" style="rounded=0;whiteSpace=wrap;html=1;fillColor=#dae8fc;strokeColor=#6c8ebf;" vertex="1" parent="1">
                    <mxGeometry x="204" y="210" width="110" height="30" as="geometry"/>
                </mxCell>
                <mxCell id="kYEHjdni47PENweSAJBy-11" value="&lt;font face=&quot;Lucida Console&quot;&gt;ShuffleMapTask&lt;/font&gt;" style="rounded=0;whiteSpace=wrap;html=1;fillColor=#dae8fc;strokeColor=#6c8ebf;" vertex="1" parent="1">
                    <mxGeometry x="204" y="250" width="110" height="30" as="geometry"/>
                </mxCell>
                <mxCell id="kYEHjdni47PENweSAJBy-12" value="" style="edgeStyle=none;orthogonalLoop=1;jettySize=auto;html=1;rounded=0;endArrow=open;startSize=14;endSize=5;sourcePerimeterSpacing=8;targetPerimeterSpacing=8;curved=1;entryX=0;entryY=0.5;entryDx=0;entryDy=0;" edge="1" parent="1" target="kYEHjdni47PENweSAJBy-9">
                    <mxGeometry width="140" relative="1" as="geometry">
                        <mxPoint x="160" y="185.0000000000001" as="sourcePoint"/>
                        <mxPoint x="180" y="60" as="targetPoint"/>
                        <Array as="points"/>
                    </mxGeometry>
                </mxCell>
                <mxCell id="kYEHjdni47PENweSAJBy-13" value="" style="edgeStyle=none;orthogonalLoop=1;jettySize=auto;html=1;rounded=0;endArrow=open;startSize=14;endSize=5;sourcePerimeterSpacing=8;targetPerimeterSpacing=8;curved=1;exitX=1;exitY=0.5;exitDx=0;exitDy=0;entryX=0;entryY=0.5;entryDx=0;entryDy=0;" edge="1" parent="1" source="kYEHjdni47PENweSAJBy-5" target="kYEHjdni47PENweSAJBy-10">
                    <mxGeometry width="140" relative="1" as="geometry">
                        <mxPoint x="160" y="220" as="sourcePoint"/>
                        <mxPoint x="300" y="220" as="targetPoint"/>
                        <Array as="points"/>
                    </mxGeometry>
                </mxCell>
                <mxCell id="kYEHjdni47PENweSAJBy-14" value="" style="edgeStyle=none;orthogonalLoop=1;jettySize=auto;html=1;rounded=0;endArrow=open;startSize=14;endSize=5;sourcePerimeterSpacing=8;targetPerimeterSpacing=8;curved=1;exitX=1;exitY=0.5;exitDx=0;exitDy=0;entryX=0;entryY=0.5;entryDx=0;entryDy=0;" edge="1" parent="1" source="kYEHjdni47PENweSAJBy-6" target="kYEHjdni47PENweSAJBy-11">
                    <mxGeometry width="140" relative="1" as="geometry">
                        <mxPoint x="170" y="210" as="sourcePoint"/>
                        <mxPoint x="310" y="210" as="targetPoint"/>
                        <Array as="points"/>
                    </mxGeometry>
                </mxCell>
                <mxCell id="kYEHjdni47PENweSAJBy-15" value="" style="edgeStyle=none;orthogonalLoop=1;jettySize=auto;html=1;rounded=0;endArrow=open;startSize=14;endSize=5;sourcePerimeterSpacing=8;targetPerimeterSpacing=8;curved=1;exitX=1;exitY=0.5;exitDx=0;exitDy=0;entryX=0;entryY=0.5;entryDx=0;entryDy=0;" edge="1" parent="1" source="kYEHjdni47PENweSAJBy-4" target="kYEHjdni47PENweSAJBy-10">
                    <mxGeometry width="140" relative="1" as="geometry">
                        <mxPoint x="170" y="210" as="sourcePoint"/>
                        <mxPoint x="310" y="210" as="targetPoint"/>
                        <Array as="points"/>
                    </mxGeometry>
                </mxCell>
                <mxCell id="kYEHjdni47PENweSAJBy-16" value="" style="edgeStyle=none;orthogonalLoop=1;jettySize=auto;html=1;rounded=0;endArrow=open;startSize=14;endSize=5;sourcePerimeterSpacing=8;targetPerimeterSpacing=8;curved=1;exitX=1;exitY=0.5;exitDx=0;exitDy=0;entryX=0;entryY=0.5;entryDx=0;entryDy=0;" edge="1" parent="1" source="kYEHjdni47PENweSAJBy-4" target="kYEHjdni47PENweSAJBy-11">
                    <mxGeometry width="140" relative="1" as="geometry">
                        <mxPoint x="170" y="210" as="sourcePoint"/>
                        <mxPoint x="310" y="210" as="targetPoint"/>
                        <Array as="points"/>
                    </mxGeometry>
                </mxCell>
                <mxCell id="kYEHjdni47PENweSAJBy-17" value="" style="edgeStyle=none;orthogonalLoop=1;jettySize=auto;html=1;rounded=0;endArrow=open;startSize=14;endSize=5;sourcePerimeterSpacing=8;targetPerimeterSpacing=8;curved=1;entryX=0;entryY=0.5;entryDx=0;entryDy=0;exitX=1;exitY=0.5;exitDx=0;exitDy=0;" edge="1" parent="1" source="kYEHjdni47PENweSAJBy-5" target="kYEHjdni47PENweSAJBy-11">
                    <mxGeometry width="140" relative="1" as="geometry">
                        <mxPoint x="350" y="190" as="sourcePoint"/>
                        <mxPoint x="310" y="210" as="targetPoint"/>
                        <Array as="points"/>
                    </mxGeometry>
                </mxCell>
                <mxCell id="kYEHjdni47PENweSAJBy-18" value="" style="edgeStyle=none;orthogonalLoop=1;jettySize=auto;html=1;rounded=0;endArrow=open;startSize=14;endSize=5;sourcePerimeterSpacing=8;targetPerimeterSpacing=8;curved=1;entryX=0;entryY=0.5;entryDx=0;entryDy=0;exitX=1;exitY=0.5;exitDx=0;exitDy=0;" edge="1" parent="1" source="kYEHjdni47PENweSAJBy-5" target="kYEHjdni47PENweSAJBy-9">
                    <mxGeometry width="140" relative="1" as="geometry">
                        <mxPoint x="170" y="210" as="sourcePoint"/>
                        <mxPoint x="310" y="210" as="targetPoint"/>
                        <Array as="points"/>
                    </mxGeometry>
                </mxCell>
                <mxCell id="kYEHjdni47PENweSAJBy-19" value="" style="edgeStyle=none;orthogonalLoop=1;jettySize=auto;html=1;rounded=0;endArrow=open;startSize=14;endSize=5;sourcePerimeterSpacing=8;targetPerimeterSpacing=8;curved=1;exitX=1;exitY=0.5;exitDx=0;exitDy=0;entryX=0;entryY=0.5;entryDx=0;entryDy=0;" edge="1" parent="1" source="kYEHjdni47PENweSAJBy-6" target="kYEHjdni47PENweSAJBy-10">
                    <mxGeometry width="140" relative="1" as="geometry">
                        <mxPoint x="170" y="210" as="sourcePoint"/>
                        <mxPoint x="310" y="210" as="targetPoint"/>
                        <Array as="points"/>
                    </mxGeometry>
                </mxCell>
                <mxCell id="kYEHjdni47PENweSAJBy-20" value="" style="edgeStyle=none;orthogonalLoop=1;jettySize=auto;html=1;rounded=0;endArrow=open;startSize=14;endSize=5;sourcePerimeterSpacing=8;targetPerimeterSpacing=8;curved=1;entryX=0;entryY=0.5;entryDx=0;entryDy=0;exitX=1;exitY=0.5;exitDx=0;exitDy=0;" edge="1" parent="1" source="kYEHjdni47PENweSAJBy-6" target="kYEHjdni47PENweSAJBy-9">
                    <mxGeometry width="140" relative="1" as="geometry">
                        <mxPoint x="180" y="270" as="sourcePoint"/>
                        <mxPoint x="310" y="210" as="targetPoint"/>
                        <Array as="points"/>
                    </mxGeometry>
                </mxCell>
                <mxCell id="kYEHjdni47PENweSAJBy-21" value="" style="rounded=1;whiteSpace=wrap;html=1;dashed=1;" vertex="1" parent="1">
                    <mxGeometry x="450" y="130" width="130" height="170" as="geometry"/>
                </mxCell>
                <mxCell id="kYEHjdni47PENweSAJBy-22" value="&lt;font face=&quot;Lucida Console&quot;&gt;ShuffleMapStage&lt;/font&gt;" style="text;strokeColor=none;fillColor=none;html=1;align=center;verticalAlign=middle;whiteSpace=wrap;rounded=0;" vertex="1" parent="1">
                    <mxGeometry x="455" y="134" width="120" height="30" as="geometry"/>
                </mxCell>
                <mxCell id="kYEHjdni47PENweSAJBy-23" value="&lt;font face=&quot;Lucida Console&quot;&gt;ShuffleMapTask&lt;/font&gt;" style="rounded=0;whiteSpace=wrap;html=1;fillColor=#dae8fc;strokeColor=#6c8ebf;" vertex="1" parent="1">
                    <mxGeometry x="460" y="170" width="110" height="30" as="geometry"/>
                </mxCell>
                <mxCell id="kYEHjdni47PENweSAJBy-24" value="&lt;font face=&quot;Lucida Console&quot;&gt;ShuffleMapTask&lt;/font&gt;" style="rounded=0;whiteSpace=wrap;html=1;fillColor=#dae8fc;strokeColor=#6c8ebf;" vertex="1" parent="1">
                    <mxGeometry x="460" y="210" width="110" height="30" as="geometry"/>
                </mxCell>
                <mxCell id="kYEHjdni47PENweSAJBy-25" value="&lt;font face=&quot;Lucida Console&quot;&gt;ShuffleMapTask&lt;/font&gt;" style="rounded=0;whiteSpace=wrap;html=1;fillColor=#dae8fc;strokeColor=#6c8ebf;" vertex="1" parent="1">
                    <mxGeometry x="460" y="250" width="110" height="30" as="geometry"/>
                </mxCell>
                <mxCell id="kYEHjdni47PENweSAJBy-26" value="" style="rounded=1;whiteSpace=wrap;html=1;dashed=1;" vertex="1" parent="1">
                    <mxGeometry x="604" y="130" width="130" height="170" as="geometry"/>
                </mxCell>
                <mxCell id="kYEHjdni47PENweSAJBy-27" value="&lt;font face=&quot;Lucida Console&quot;&gt;ResultStage&lt;/font&gt;" style="text;strokeColor=none;fillColor=none;html=1;align=center;verticalAlign=middle;whiteSpace=wrap;rounded=0;" vertex="1" parent="1">
                    <mxGeometry x="609" y="134" width="120" height="30" as="geometry"/>
                </mxCell>
                <mxCell id="kYEHjdni47PENweSAJBy-28" value="&lt;font face=&quot;Lucida Console&quot;&gt;ResultTask&lt;/font&gt;" style="rounded=0;whiteSpace=wrap;html=1;fillColor=#f8cecc;strokeColor=#b85450;" vertex="1" parent="1">
                    <mxGeometry x="614" y="170" width="110" height="30" as="geometry"/>
                </mxCell>
                <mxCell id="kYEHjdni47PENweSAJBy-29" value="&lt;font face=&quot;Lucida Console&quot;&gt;ResultTask&lt;/font&gt;" style="rounded=0;whiteSpace=wrap;html=1;fillColor=#f8cecc;strokeColor=#b85450;" vertex="1" parent="1">
                    <mxGeometry x="614" y="210" width="110" height="30" as="geometry"/>
                </mxCell>
                <mxCell id="kYEHjdni47PENweSAJBy-30" value="&lt;font face=&quot;Lucida Console&quot;&gt;ResultTask&lt;/font&gt;" style="rounded=0;whiteSpace=wrap;html=1;fillColor=#f8cecc;strokeColor=#b85450;" vertex="1" parent="1">
                    <mxGeometry x="614" y="250" width="110" height="30" as="geometry"/>
                </mxCell>
                <mxCell id="kYEHjdni47PENweSAJBy-31" value="" style="edgeStyle=none;orthogonalLoop=1;jettySize=auto;html=1;rounded=0;endArrow=open;startSize=14;endSize=5;sourcePerimeterSpacing=8;targetPerimeterSpacing=8;curved=1;entryX=0;entryY=0.5;entryDx=0;entryDy=0;" edge="1" parent="1" target="kYEHjdni47PENweSAJBy-28">
                    <mxGeometry width="140" relative="1" as="geometry">
                        <mxPoint x="570" y="185.0000000000001" as="sourcePoint"/>
                        <mxPoint x="590" y="60" as="targetPoint"/>
                        <Array as="points"/>
                    </mxGeometry>
                </mxCell>
                <mxCell id="kYEHjdni47PENweSAJBy-32" value="" style="edgeStyle=none;orthogonalLoop=1;jettySize=auto;html=1;rounded=0;endArrow=open;startSize=14;endSize=5;sourcePerimeterSpacing=8;targetPerimeterSpacing=8;curved=1;exitX=1;exitY=0.5;exitDx=0;exitDy=0;entryX=0;entryY=0.5;entryDx=0;entryDy=0;" edge="1" parent="1" source="kYEHjdni47PENweSAJBy-24" target="kYEHjdni47PENweSAJBy-29">
                    <mxGeometry width="140" relative="1" as="geometry">
                        <mxPoint x="570" y="220" as="sourcePoint"/>
                        <mxPoint x="710" y="220" as="targetPoint"/>
                        <Array as="points"/>
                    </mxGeometry>
                </mxCell>
                <mxCell id="kYEHjdni47PENweSAJBy-33" value="" style="edgeStyle=none;orthogonalLoop=1;jettySize=auto;html=1;rounded=0;endArrow=open;startSize=14;endSize=5;sourcePerimeterSpacing=8;targetPerimeterSpacing=8;curved=1;exitX=1;exitY=0.5;exitDx=0;exitDy=0;entryX=0;entryY=0.5;entryDx=0;entryDy=0;" edge="1" parent="1" source="kYEHjdni47PENweSAJBy-25" target="kYEHjdni47PENweSAJBy-30">
                    <mxGeometry width="140" relative="1" as="geometry">
                        <mxPoint x="580" y="210" as="sourcePoint"/>
                        <mxPoint x="720" y="210" as="targetPoint"/>
                        <Array as="points"/>
                    </mxGeometry>
                </mxCell>
                <mxCell id="kYEHjdni47PENweSAJBy-34" value="" style="edgeStyle=none;orthogonalLoop=1;jettySize=auto;html=1;rounded=0;endArrow=open;startSize=14;endSize=5;sourcePerimeterSpacing=8;targetPerimeterSpacing=8;curved=1;exitX=1;exitY=0.5;exitDx=0;exitDy=0;entryX=0;entryY=0.5;entryDx=0;entryDy=0;" edge="1" parent="1" source="kYEHjdni47PENweSAJBy-23" target="kYEHjdni47PENweSAJBy-29">
                    <mxGeometry width="140" relative="1" as="geometry">
                        <mxPoint x="580" y="210" as="sourcePoint"/>
                        <mxPoint x="720" y="210" as="targetPoint"/>
                        <Array as="points"/>
                    </mxGeometry>
                </mxCell>
                <mxCell id="kYEHjdni47PENweSAJBy-35" value="" style="edgeStyle=none;orthogonalLoop=1;jettySize=auto;html=1;rounded=0;endArrow=open;startSize=14;endSize=5;sourcePerimeterSpacing=8;targetPerimeterSpacing=8;curved=1;exitX=1;exitY=0.5;exitDx=0;exitDy=0;entryX=0;entryY=0.5;entryDx=0;entryDy=0;" edge="1" parent="1" source="kYEHjdni47PENweSAJBy-23" target="kYEHjdni47PENweSAJBy-30">
                    <mxGeometry width="140" relative="1" as="geometry">
                        <mxPoint x="580" y="210" as="sourcePoint"/>
                        <mxPoint x="720" y="210" as="targetPoint"/>
                        <Array as="points"/>
                    </mxGeometry>
                </mxCell>
                <mxCell id="kYEHjdni47PENweSAJBy-36" value="" style="edgeStyle=none;orthogonalLoop=1;jettySize=auto;html=1;rounded=0;endArrow=open;startSize=14;endSize=5;sourcePerimeterSpacing=8;targetPerimeterSpacing=8;curved=1;entryX=0;entryY=0.5;entryDx=0;entryDy=0;exitX=1;exitY=0.5;exitDx=0;exitDy=0;" edge="1" parent="1" source="kYEHjdni47PENweSAJBy-24" target="kYEHjdni47PENweSAJBy-30">
                    <mxGeometry width="140" relative="1" as="geometry">
                        <mxPoint x="760" y="190" as="sourcePoint"/>
                        <mxPoint x="720" y="210" as="targetPoint"/>
                        <Array as="points"/>
                    </mxGeometry>
                </mxCell>
                <mxCell id="kYEHjdni47PENweSAJBy-37" value="" style="edgeStyle=none;orthogonalLoop=1;jettySize=auto;html=1;rounded=0;endArrow=open;startSize=14;endSize=5;sourcePerimeterSpacing=8;targetPerimeterSpacing=8;curved=1;entryX=0;entryY=0.5;entryDx=0;entryDy=0;exitX=1;exitY=0.5;exitDx=0;exitDy=0;" edge="1" parent="1" source="kYEHjdni47PENweSAJBy-24" target="kYEHjdni47PENweSAJBy-28">
                    <mxGeometry width="140" relative="1" as="geometry">
                        <mxPoint x="580" y="210" as="sourcePoint"/>
                        <mxPoint x="720" y="210" as="targetPoint"/>
                        <Array as="points"/>
                    </mxGeometry>
                </mxCell>
                <mxCell id="kYEHjdni47PENweSAJBy-38" value="" style="edgeStyle=none;orthogonalLoop=1;jettySize=auto;html=1;rounded=0;endArrow=open;startSize=14;endSize=5;sourcePerimeterSpacing=8;targetPerimeterSpacing=8;curved=1;exitX=1;exitY=0.5;exitDx=0;exitDy=0;entryX=0;entryY=0.5;entryDx=0;entryDy=0;" edge="1" parent="1" source="kYEHjdni47PENweSAJBy-25" target="kYEHjdni47PENweSAJBy-29">
                    <mxGeometry width="140" relative="1" as="geometry">
                        <mxPoint x="580" y="210" as="sourcePoint"/>
                        <mxPoint x="720" y="210" as="targetPoint"/>
                        <Array as="points"/>
                    </mxGeometry>
                </mxCell>
                <mxCell id="kYEHjdni47PENweSAJBy-39" value="" style="edgeStyle=none;orthogonalLoop=1;jettySize=auto;html=1;rounded=0;endArrow=open;startSize=14;endSize=5;sourcePerimeterSpacing=8;targetPerimeterSpacing=8;curved=1;entryX=0;entryY=0.5;entryDx=0;entryDy=0;exitX=1;exitY=0.5;exitDx=0;exitDy=0;" edge="1" parent="1" source="kYEHjdni47PENweSAJBy-25" target="kYEHjdni47PENweSAJBy-28">
                    <mxGeometry width="140" relative="1" as="geometry">
                        <mxPoint x="590" y="270" as="sourcePoint"/>
                        <mxPoint x="720" y="210" as="targetPoint"/>
                        <Array as="points"/>
                    </mxGeometry>
                </mxCell>
                <mxCell id="kYEHjdni47PENweSAJBy-40" value="" style="edgeStyle=none;orthogonalLoop=1;jettySize=auto;html=1;rounded=0;endArrow=open;startSize=14;endSize=5;sourcePerimeterSpacing=8;targetPerimeterSpacing=8;curved=1;entryX=0.5;entryY=0;entryDx=0;entryDy=0;exitX=0;exitY=0.5;exitDx=0;exitDy=0;" edge="1" parent="1" source="kYEHjdni47PENweSAJBy-1" target="kYEHjdni47PENweSAJBy-2">
                    <mxGeometry width="140" relative="1" as="geometry">
                        <mxPoint x="110" y="110" as="sourcePoint"/>
                        <mxPoint x="240" y="60" as="targetPoint"/>
                        <Array as="points">
                            <mxPoint x="140" y="70"/>
                        </Array>
                    </mxGeometry>
                </mxCell>
                <mxCell id="kYEHjdni47PENweSAJBy-41" value="" style="edgeStyle=none;orthogonalLoop=1;jettySize=auto;html=1;rounded=0;endArrow=open;startSize=14;endSize=5;sourcePerimeterSpacing=8;targetPerimeterSpacing=8;curved=1;exitX=0;exitY=1;exitDx=0;exitDy=0;entryX=0.5;entryY=0;entryDx=0;entryDy=0;" edge="1" parent="1" source="kYEHjdni47PENweSAJBy-1" target="kYEHjdni47PENweSAJBy-7">
                    <mxGeometry width="140" relative="1" as="geometry">
                        <mxPoint x="150" y="140" as="sourcePoint"/>
                        <mxPoint x="290" y="140" as="targetPoint"/>
                        <Array as="points">
                            <mxPoint x="260" y="90"/>
                        </Array>
                    </mxGeometry>
                </mxCell>
                <mxCell id="kYEHjdni47PENweSAJBy-42" value="" style="edgeStyle=none;orthogonalLoop=1;jettySize=auto;html=1;rounded=0;endArrow=open;startSize=14;endSize=5;sourcePerimeterSpacing=8;targetPerimeterSpacing=8;curved=1;exitX=1;exitY=0.5;exitDx=0;exitDy=0;entryX=0.5;entryY=0;entryDx=0;entryDy=0;" edge="1" parent="1" source="kYEHjdni47PENweSAJBy-1" target="kYEHjdni47PENweSAJBy-26">
                    <mxGeometry width="140" relative="1" as="geometry">
                        <mxPoint x="400" y="39.56999999999999" as="sourcePoint"/>
                        <mxPoint x="540" y="39.56999999999999" as="targetPoint"/>
                        <Array as="points">
                            <mxPoint x="610" y="50"/>
                        </Array>
                    </mxGeometry>
                </mxCell>
                <mxCell id="kYEHjdni47PENweSAJBy-43" value="" style="edgeStyle=none;orthogonalLoop=1;jettySize=auto;html=1;rounded=0;endArrow=open;startSize=14;endSize=5;sourcePerimeterSpacing=8;targetPerimeterSpacing=8;curved=1;entryX=0.5;entryY=0;entryDx=0;entryDy=0;exitX=1;exitY=1;exitDx=0;exitDy=0;" edge="1" parent="1" source="kYEHjdni47PENweSAJBy-1" target="kYEHjdni47PENweSAJBy-21">
                    <mxGeometry width="140" relative="1" as="geometry">
                        <mxPoint x="150" y="140" as="sourcePoint"/>
                        <mxPoint x="290" y="140" as="targetPoint"/>
                        <Array as="points">
                            <mxPoint x="510" y="90"/>
                        </Array>
                    </mxGeometry>
                </mxCell>
                <mxCell id="kYEHjdni47PENweSAJBy-44" value="" style="edgeStyle=none;orthogonalLoop=1;jettySize=auto;html=1;rounded=0;endArrow=open;startSize=14;endSize=5;sourcePerimeterSpacing=8;targetPerimeterSpacing=8;curved=1;exitX=0.5;exitY=1;exitDx=0;exitDy=0;" edge="1" parent="1" source="kYEHjdni47PENweSAJBy-1">
                    <mxGeometry width="140" relative="1" as="geometry">
                        <mxPoint x="390" y="100" as="sourcePoint"/>
                        <mxPoint x="380" y="130.0000000000001" as="targetPoint"/>
                        <Array as="points"/>
                    </mxGeometry>
                </mxCell>
                <mxCell id="kYEHjdni47PENweSAJBy-45" value="" style="edgeStyle=none;orthogonalLoop=1;jettySize=auto;html=1;rounded=0;endArrow=open;startSize=14;endSize=5;sourcePerimeterSpacing=8;targetPerimeterSpacing=8;curved=1;entryX=0;entryY=0.5;entryDx=0;entryDy=0;dashed=1;dashPattern=12 12;" edge="1" parent="1">
                    <mxGeometry width="140" relative="1" as="geometry">
                        <mxPoint x="314" y="184.5" as="sourcePoint"/>
                        <mxPoint x="358" y="184.5" as="targetPoint"/>
                        <Array as="points"/>
                    </mxGeometry>
                </mxCell>
                <mxCell id="kYEHjdni47PENweSAJBy-46" value="" style="edgeStyle=none;orthogonalLoop=1;jettySize=auto;html=1;rounded=0;endArrow=open;startSize=14;endSize=5;sourcePerimeterSpacing=8;targetPerimeterSpacing=8;curved=1;exitX=1;exitY=0.5;exitDx=0;exitDy=0;entryX=0;entryY=0.5;entryDx=0;entryDy=0;dashed=1;dashPattern=12 12;" edge="1" parent="1">
                    <mxGeometry width="140" relative="1" as="geometry">
                        <mxPoint x="314" y="224.5" as="sourcePoint"/>
                        <mxPoint x="358" y="224.5" as="targetPoint"/>
                        <Array as="points"/>
                    </mxGeometry>
                </mxCell>
                <mxCell id="kYEHjdni47PENweSAJBy-47" value="" style="edgeStyle=none;orthogonalLoop=1;jettySize=auto;html=1;rounded=0;endArrow=open;startSize=14;endSize=5;sourcePerimeterSpacing=8;targetPerimeterSpacing=8;curved=1;exitX=1;exitY=0.5;exitDx=0;exitDy=0;entryX=0;entryY=0.5;entryDx=0;entryDy=0;dashed=1;dashPattern=12 12;" edge="1" parent="1">
                    <mxGeometry width="140" relative="1" as="geometry">
                        <mxPoint x="314" y="264.5" as="sourcePoint"/>
                        <mxPoint x="358" y="264.5" as="targetPoint"/>
                        <Array as="points"/>
                    </mxGeometry>
                </mxCell>
                <mxCell id="kYEHjdni47PENweSAJBy-48" value="" style="edgeStyle=none;orthogonalLoop=1;jettySize=auto;html=1;rounded=0;endArrow=open;startSize=14;endSize=5;sourcePerimeterSpacing=8;targetPerimeterSpacing=8;curved=1;exitX=1;exitY=0.5;exitDx=0;exitDy=0;entryX=0;entryY=0.5;entryDx=0;entryDy=0;dashed=1;dashPattern=12 12;" edge="1" parent="1">
                    <mxGeometry width="140" relative="1" as="geometry">
                        <mxPoint x="314" y="184.5" as="sourcePoint"/>
                        <mxPoint x="358" y="224.5" as="targetPoint"/>
                        <Array as="points"/>
                    </mxGeometry>
                </mxCell>
                <mxCell id="kYEHjdni47PENweSAJBy-49" value="" style="edgeStyle=none;orthogonalLoop=1;jettySize=auto;html=1;rounded=0;endArrow=open;startSize=14;endSize=5;sourcePerimeterSpacing=8;targetPerimeterSpacing=8;curved=1;exitX=1;exitY=0.5;exitDx=0;exitDy=0;entryX=0;entryY=0.5;entryDx=0;entryDy=0;dashed=1;dashPattern=12 12;" edge="1" parent="1">
                    <mxGeometry width="140" relative="1" as="geometry">
                        <mxPoint x="314" y="184.5" as="sourcePoint"/>
                        <mxPoint x="358" y="264.5" as="targetPoint"/>
                        <Array as="points"/>
                    </mxGeometry>
                </mxCell>
                <mxCell id="kYEHjdni47PENweSAJBy-50" value="" style="edgeStyle=none;orthogonalLoop=1;jettySize=auto;html=1;rounded=0;endArrow=open;startSize=14;endSize=5;sourcePerimeterSpacing=8;targetPerimeterSpacing=8;curved=1;entryX=0;entryY=0.5;entryDx=0;entryDy=0;exitX=1;exitY=0.5;exitDx=0;exitDy=0;dashed=1;dashPattern=12 12;" edge="1" parent="1">
                    <mxGeometry width="140" relative="1" as="geometry">
                        <mxPoint x="314" y="224.5" as="sourcePoint"/>
                        <mxPoint x="358" y="264.5" as="targetPoint"/>
                        <Array as="points"/>
                    </mxGeometry>
                </mxCell>
                <mxCell id="kYEHjdni47PENweSAJBy-51" value="" style="edgeStyle=none;orthogonalLoop=1;jettySize=auto;html=1;rounded=0;endArrow=open;startSize=14;endSize=5;sourcePerimeterSpacing=8;targetPerimeterSpacing=8;curved=1;entryX=0;entryY=0.5;entryDx=0;entryDy=0;exitX=1;exitY=0.5;exitDx=0;exitDy=0;dashed=1;dashPattern=12 12;" edge="1" parent="1">
                    <mxGeometry width="140" relative="1" as="geometry">
                        <mxPoint x="314" y="224.5" as="sourcePoint"/>
                        <mxPoint x="358" y="184.5" as="targetPoint"/>
                        <Array as="points"/>
                    </mxGeometry>
                </mxCell>
                <mxCell id="kYEHjdni47PENweSAJBy-52" value="" style="edgeStyle=none;orthogonalLoop=1;jettySize=auto;html=1;rounded=0;endArrow=open;startSize=14;endSize=5;sourcePerimeterSpacing=8;targetPerimeterSpacing=8;curved=1;exitX=1;exitY=0.5;exitDx=0;exitDy=0;entryX=0;entryY=0.5;entryDx=0;entryDy=0;dashed=1;dashPattern=12 12;" edge="1" parent="1">
                    <mxGeometry width="140" relative="1" as="geometry">
                        <mxPoint x="314" y="264.5" as="sourcePoint"/>
                        <mxPoint x="358" y="224.5" as="targetPoint"/>
                        <Array as="points"/>
                    </mxGeometry>
                </mxCell>
                <mxCell id="kYEHjdni47PENweSAJBy-53" value="" style="edgeStyle=none;orthogonalLoop=1;jettySize=auto;html=1;rounded=0;endArrow=open;startSize=14;endSize=5;sourcePerimeterSpacing=8;targetPerimeterSpacing=8;curved=1;entryX=0;entryY=0.5;entryDx=0;entryDy=0;exitX=1;exitY=0.5;exitDx=0;exitDy=0;dashed=1;dashPattern=12 12;" edge="1" parent="1">
                    <mxGeometry width="140" relative="1" as="geometry">
                        <mxPoint x="314" y="264.5" as="sourcePoint"/>
                        <mxPoint x="358" y="184.5" as="targetPoint"/>
                        <Array as="points"/>
                    </mxGeometry>
                </mxCell>
                <mxCell id="kYEHjdni47PENweSAJBy-54" value="" style="edgeStyle=none;orthogonalLoop=1;jettySize=auto;html=1;rounded=0;endArrow=open;startSize=14;endSize=5;sourcePerimeterSpacing=8;targetPerimeterSpacing=8;curved=1;entryX=0;entryY=0.5;entryDx=0;entryDy=0;dashed=1;dashPattern=12 12;" edge="1" parent="1">
                    <mxGeometry width="140" relative="1" as="geometry">
                        <mxPoint x="416" y="184.5" as="sourcePoint"/>
                        <mxPoint x="460" y="184.5" as="targetPoint"/>
                        <Array as="points"/>
                    </mxGeometry>
                </mxCell>
                <mxCell id="kYEHjdni47PENweSAJBy-55" value="" style="edgeStyle=none;orthogonalLoop=1;jettySize=auto;html=1;rounded=0;endArrow=open;startSize=14;endSize=5;sourcePerimeterSpacing=8;targetPerimeterSpacing=8;curved=1;exitX=1;exitY=0.5;exitDx=0;exitDy=0;entryX=0;entryY=0.5;entryDx=0;entryDy=0;dashed=1;dashPattern=12 12;" edge="1" parent="1">
                    <mxGeometry width="140" relative="1" as="geometry">
                        <mxPoint x="416" y="224.5" as="sourcePoint"/>
                        <mxPoint x="460" y="224.5" as="targetPoint"/>
                        <Array as="points"/>
                    </mxGeometry>
                </mxCell>
                <mxCell id="kYEHjdni47PENweSAJBy-56" value="" style="edgeStyle=none;orthogonalLoop=1;jettySize=auto;html=1;rounded=0;endArrow=open;startSize=14;endSize=5;sourcePerimeterSpacing=8;targetPerimeterSpacing=8;curved=1;exitX=1;exitY=0.5;exitDx=0;exitDy=0;entryX=0;entryY=0.5;entryDx=0;entryDy=0;dashed=1;dashPattern=12 12;" edge="1" parent="1">
                    <mxGeometry width="140" relative="1" as="geometry">
                        <mxPoint x="416" y="264.5" as="sourcePoint"/>
                        <mxPoint x="460" y="264.5" as="targetPoint"/>
                        <Array as="points"/>
                    </mxGeometry>
                </mxCell>
                <mxCell id="kYEHjdni47PENweSAJBy-57" value="" style="edgeStyle=none;orthogonalLoop=1;jettySize=auto;html=1;rounded=0;endArrow=open;startSize=14;endSize=5;sourcePerimeterSpacing=8;targetPerimeterSpacing=8;curved=1;exitX=1;exitY=0.5;exitDx=0;exitDy=0;entryX=0;entryY=0.5;entryDx=0;entryDy=0;dashed=1;dashPattern=12 12;" edge="1" parent="1">
                    <mxGeometry width="140" relative="1" as="geometry">
                        <mxPoint x="416" y="184.5" as="sourcePoint"/>
                        <mxPoint x="460" y="224.5" as="targetPoint"/>
                        <Array as="points"/>
                    </mxGeometry>
                </mxCell>
                <mxCell id="kYEHjdni47PENweSAJBy-58" value="" style="edgeStyle=none;orthogonalLoop=1;jettySize=auto;html=1;rounded=0;endArrow=open;startSize=14;endSize=5;sourcePerimeterSpacing=8;targetPerimeterSpacing=8;curved=1;exitX=1;exitY=0.5;exitDx=0;exitDy=0;entryX=0;entryY=0.5;entryDx=0;entryDy=0;dashed=1;dashPattern=12 12;" edge="1" parent="1">
                    <mxGeometry width="140" relative="1" as="geometry">
                        <mxPoint x="416" y="184.5" as="sourcePoint"/>
                        <mxPoint x="460" y="264.5" as="targetPoint"/>
                        <Array as="points"/>
                    </mxGeometry>
                </mxCell>
                <mxCell id="kYEHjdni47PENweSAJBy-59" value="" style="edgeStyle=none;orthogonalLoop=1;jettySize=auto;html=1;rounded=0;endArrow=open;startSize=14;endSize=5;sourcePerimeterSpacing=8;targetPerimeterSpacing=8;curved=1;entryX=0;entryY=0.5;entryDx=0;entryDy=0;exitX=1;exitY=0.5;exitDx=0;exitDy=0;dashed=1;dashPattern=12 12;" edge="1" parent="1">
                    <mxGeometry width="140" relative="1" as="geometry">
                        <mxPoint x="416" y="224.5" as="sourcePoint"/>
                        <mxPoint x="460" y="264.5" as="targetPoint"/>
                        <Array as="points"/>
                    </mxGeometry>
                </mxCell>
                <mxCell id="kYEHjdni47PENweSAJBy-60" value="" style="edgeStyle=none;orthogonalLoop=1;jettySize=auto;html=1;rounded=0;endArrow=open;startSize=14;endSize=5;sourcePerimeterSpacing=8;targetPerimeterSpacing=8;curved=1;entryX=0;entryY=0.5;entryDx=0;entryDy=0;exitX=1;exitY=0.5;exitDx=0;exitDy=0;dashed=1;dashPattern=12 12;" edge="1" parent="1">
                    <mxGeometry width="140" relative="1" as="geometry">
                        <mxPoint x="416" y="224.5" as="sourcePoint"/>
                        <mxPoint x="460" y="184.5" as="targetPoint"/>
                        <Array as="points"/>
                    </mxGeometry>
                </mxCell>
                <mxCell id="kYEHjdni47PENweSAJBy-61" value="" style="edgeStyle=none;orthogonalLoop=1;jettySize=auto;html=1;rounded=0;endArrow=open;startSize=14;endSize=5;sourcePerimeterSpacing=8;targetPerimeterSpacing=8;curved=1;exitX=1;exitY=0.5;exitDx=0;exitDy=0;entryX=0;entryY=0.5;entryDx=0;entryDy=0;dashed=1;dashPattern=12 12;" edge="1" parent="1">
                    <mxGeometry width="140" relative="1" as="geometry">
                        <mxPoint x="416" y="264.5" as="sourcePoint"/>
                        <mxPoint x="460" y="224.5" as="targetPoint"/>
                        <Array as="points"/>
                    </mxGeometry>
                </mxCell>
                <mxCell id="kYEHjdni47PENweSAJBy-62" value="" style="edgeStyle=none;orthogonalLoop=1;jettySize=auto;html=1;rounded=0;endArrow=open;startSize=14;endSize=5;sourcePerimeterSpacing=8;targetPerimeterSpacing=8;curved=1;entryX=0;entryY=0.5;entryDx=0;entryDy=0;exitX=1;exitY=0.5;exitDx=0;exitDy=0;dashed=1;dashPattern=12 12;" edge="1" parent="1">
                    <mxGeometry width="140" relative="1" as="geometry">
                        <mxPoint x="416" y="264.5" as="sourcePoint"/>
                        <mxPoint x="460" y="184.5" as="targetPoint"/>
                        <Array as="points"/>
                    </mxGeometry>
                </mxCell>
                <mxCell id="kYEHjdni47PENweSAJBy-63" value="RDD" style="text;strokeColor=none;fillColor=none;html=1;align=center;verticalAlign=middle;whiteSpace=wrap;rounded=0;fontFamily=Lucida Console;" vertex="1" parent="1">
                    <mxGeometry x="349" y="70" width="60" height="30" as="geometry"/>
                </mxCell>
                <mxCell id="kYEHjdni47PENweSAJBy-64" value="" style="edgeStyle=none;orthogonalLoop=1;jettySize=auto;html=1;rounded=0;endArrow=none;startSize=14;endSize=14;sourcePerimeterSpacing=8;targetPerimeterSpacing=8;curved=1;endFill=0;dashed=1;" edge="1" parent="1">
                    <mxGeometry width="140" relative="1" as="geometry">
                        <mxPoint x="371" y="224.85000000000014" as="sourcePoint"/>
                        <mxPoint x="401" y="224.85000000000014" as="targetPoint"/>
                        <Array as="points"/>
                    </mxGeometry>
                </mxCell>
            </root>
        </mxGraphModel>
    </diagram>
</mxfile>